<?xml version="1.0" standalone="no"?>
<!DOCTYPE svg PUBLIC "-//W3C//DTD SVG 20010904//EN"
 "http://www.w3.org/TR/2001/REC-SVG-20010904/DTD/svg10.dtd">
<svg version="1.0" xmlns="http://www.w3.org/2000/svg"
 width="700.000000pt" height="700.000000pt" viewBox="0 0 700.000000 700.000000"
 preserveAspectRatio="xMidYMid meet">
<metadata>
Created by potrace 1.11, written by Peter Selinger 2001-2013
</metadata>
<g transform="translate(0.000000,700.000000) scale(0.100000,-0.100000)"
fill="#000000" stroke="none">
<path d="M3298 6996 c-1 -2 -42 -6 -89 -9 -150 -11 -399 -52 -549 -91 -107
-28 -151 -41 -245 -72 -339 -111 -660 -275 -965 -493 -58 -41 -107 -77 -110
-80 -3 -4 -45 -39 -94 -80 -141 -118 -355 -336 -448 -457 -12 -16 -25 -31 -29
-34 -13 -11 -148 -199 -193 -270 -27 -41 -57 -87 -67 -102 -10 -15 -19 -29
-19 -32 0 -3 -14 -29 -31 -58 -82 -139 -196 -390 -256 -563 -66 -192 -139
-489 -158 -644 -4 -30 -8 -61 -10 -70 -2 -9 -6 -52 -10 -96 -3 -44 -8 -96 -10
-115 -5 -46 -5 -413 0 -465 2 -22 6 -69 10 -105 3 -36 8 -76 10 -90 2 -14 7
-45 10 -70 7 -65 33 -209 39 -218 2 -4 7 -27 11 -51 3 -24 11 -55 16 -70 6
-14 10 -28 10 -31 -2 -22 65 -238 111 -360 152 -400 353 -736 637 -1065 407
-471 944 -828 1538 -1024 110 -36 187 -59 223 -66 8 -2 35 -8 60 -15 25 -7 54
-14 65 -16 48 -11 123 -25 155 -30 19 -4 42 -8 50 -9 8 -2 40 -6 70 -10 30 -3
69 -8 85 -11 169 -24 630 -24 785 0 14 2 48 7 75 10 54 7 67 9 195 32 83 15
347 81 363 91 5 3 -31 21 -80 40 -246 96 -522 255 -763 438 l-95 73 -180 6
c-269 9 -380 25 -620 86 -435 111 -825 319 -1169 625 -311 275 -576 649 -727
1026 -28 72 -119 339 -114 339 2 0 -1 15 -6 33 -11 38 -40 172 -44 204 -3 23
-15 93 -21 127 -18 100 -25 476 -10 621 8 84 32 239 47 303 6 26 12 54 14 62
19 84 29 124 56 208 113 354 292 678 532 967 80 96 284 294 387 377 303 241
640 413 1009 514 121 33 138 37 206 49 17 3 53 10 80 15 49 9 104 16 195 26
25 3 122 6 215 8 255 5 475 -19 705 -75 797 -197 1460 -720 1831 -1444 93
-183 200 -465 223 -589 2 -12 9 -39 14 -61 6 -22 13 -53 16 -70 3 -16 10 -53
15 -82 6 -29 13 -71 16 -95 3 -24 8 -59 11 -78 9 -57 12 -501 4 -555 -4 -28
-11 -78 -14 -112 -4 -35 -8 -68 -11 -75 -2 -7 -6 -29 -9 -48 -61 -396 -256
-846 -516 -1188 -117 -154 -144 -185 -280 -320 -101 -100 -126 -119 -205 -157
-317 -152 -701 -95 -1119 166 -61 38 -124 80 -141 94 -29 24 -29 24 -7 25 36
0 227 66 305 105 115 58 217 133 312 229 212 216 329 477 370 825 9 76 22 759
16 838 -1 14 -2041 -2022 -2041 -2036 0 -5 9 -12 19 -16 27 -8 447 -292 536
-363 32 -25 252 -165 320 -204 245 -139 629 -290 850 -333 371 -72 646 -63
884 32 158 62 211 102 441 333 495 496 819 1121 955 1840 8 44 15 90 20 135 4
28 8 61 11 75 18 110 25 521 11 675 -4 44 -10 105 -13 135 -2 30 -14 108 -25
173 -150 890 -640 1690 -1365 2229 -444 329 -1004 566 -1529 645 -27 4 -52 8
-55 8 -3 1 -36 5 -75 9 -38 5 -79 11 -90 13 -22 6 -531 13 -537 9z"/>
<path d="M3245 5750 c-27 -4 -75 -11 -105 -15 -123 -16 -298 -68 -435 -130
-310 -141 -565 -415 -679 -733 -74 -207 -91 -336 -100 -750 -4 -180 -3 -192
12 -180 9 7 419 414 910 904 l893 891 -33 8 c-46 10 -402 14 -463 5z"/>
<path d="M2943 4668 l-1023 -1023 5 -310 c4 -296 11 -460 20 -515 2 -14 7 -45
10 -70 8 -54 42 -202 55 -235 8 -22 109 76 1360 1327 l1350 1350 -41 49 c-109
130 -250 246 -394 324 -85 46 -244 111 -291 120 -27 6 -90 -55 -1051 -1017z"/>
<path d="M3458 3653 l-1357 -1357 24 -45 c79 -156 254 -340 420 -445 60 -38
162 -91 190 -100 17 -5 217 190 1130 1105 611 610 1112 1112 1113 1114 8 8 -3
511 -13 595 -9 84 -35 205 -59 280 -31 98 -76 210 -85 210 -3 0 -617 -611
-1363 -1357z"/>
</g>
</svg>
