<svg id="Layer_1" data-name="Layer 1" xmlns="http://www.w3.org/2000/svg" viewBox="0 0 244.07 244.07"><defs><style>.cls-1{fill:#059153;}.cls-2{fill:#075aa1;}.cls-3{fill:#a0c33a;}.cls-4{fill:#27387d;}</style></defs><title>qm3_solo</title><path class="cls-1" d="M381.53,566l-71.39,71.4c0,8.55.15,16.94.44,23.95a59.45,59.45,0,0,0,2.94,16.36l94.14-94.14C401.42,574.94,392.31,569.06,381.53,566Z" transform="translate(-243.15 -520.43)"/><path class="cls-2" d="M416.62,611.82a52.88,52.88,0,0,0-5.37-22.26l-94.91,94.91a44.13,44.13,0,0,0,22.85,20.85l77.69-77.69C416.84,621.76,416.75,616.25,416.62,611.82Z" transform="translate(-243.15 -520.43)"/><path class="cls-3" d="M373.67,564.36a70.58,70.58,0,0,0-10-.71c-28.83,0-51.94,16.58-53.12,48.17-.19,5-.31,10.44-.38,16Z" transform="translate(-243.15 -520.43)"/><path class="cls-4" d="M365.19,520.43A122,122,0,1,0,401.7,758.91c-10.08-3.52-21.35-9.51-33.29-19.23-1.07,0-2.14.09-3.22.09a97.6,97.6,0,1,1,63.79-24c-9.7,6-25.68,8.12-47.94-8.26,19-3.6,34.79-18.88,35.58-45.74.18-7.21.28-16,.29-24.64l-71.51,71.5c11.08,6.26,22.37,16.51,35.68,23,41.71,20.47,60.87,5.6,63.14,3.67a122,122,0,0,0-79-214.92Z" transform="translate(-243.15 -520.43)"/></svg>