<svg id="Layer_1" data-name="Layer 1" xmlns="http://www.w3.org/2000/svg" viewBox="0 0 1045.96 288.07"><defs><style>.cls-1{fill:#059153;}.cls-2{fill:#075aa1;}.cls-3{fill:#a0c33a;}.cls-4{fill:#27387d;}.cls-5{fill:#97b440;}</style></defs><title>qm3</title><path class="cls-1" d="M381.53,566l-71.39,71.4c0,8.55.15,16.94.44,23.95a59.45,59.45,0,0,0,2.94,16.36l94.14-94.14C401.42,574.94,392.31,569.06,381.53,566Z" transform="translate(-243.15 -496.42)"/><path class="cls-2" d="M416.62,611.82a52.88,52.88,0,0,0-5.37-22.26l-94.91,94.91a44.13,44.13,0,0,0,22.85,20.85l77.69-77.69C416.84,621.76,416.75,616.25,416.62,611.82Z" transform="translate(-243.15 -496.42)"/><path class="cls-3" d="M373.67,564.36a70.58,70.58,0,0,0-10-.71c-28.83,0-51.94,16.58-53.12,48.17-.19,5-.31,10.44-.38,16Z" transform="translate(-243.15 -496.42)"/><path class="cls-4" d="M365.19,520.43A122,122,0,1,0,401.7,758.91c-10.08-3.52-21.35-9.51-33.29-19.23-1.07,0-2.14.09-3.22.09a97.6,97.6,0,1,1,63.79-24c-9.7,6-25.68,8.12-47.94-8.26,19-3.6,34.79-18.88,35.58-45.74.18-7.21.28-16,.29-24.64l-71.51,71.5c11.08,6.26,22.37,16.51,35.68,23,41.71,20.47,60.87,5.6,63.14,3.67a122,122,0,0,0-79-214.92Z" transform="translate(-243.15 -496.42)"/><path class="cls-4" d="M666.6,725.11l-20.84-20.92a50.62,50.62,0,0,0,6.25-5q13.71-13,13.72-32.55V613.8q0-19.54-13.72-32.56t-33.32-13h-63.5q-19.61,0-33.33,13T508.14,613.8v52.81q0,19.59,13.72,32.55t33.33,13h57.25l12.88,12.93ZM555.19,678.56q-13.47,0-13.45-12V613.85q0-12,13.45-12h63.5q13.42,0,13.43,12v52.72c0,7.54-4,11.51-11.93,11.95l-18.61-18.69h-41.3l18.66,18.73Z" transform="translate(-243.15 -496.42)"/><path class="cls-4" d="M861.09,711.35H827.67V624.18l-55.52,84.94-55.51-84.94v87.17H683.22V568.19h35.09l53.84,82.73,54.12-82.73h34.82Z" transform="translate(-243.15 -496.42)"/><path class="cls-1" d="M1008,638.8q17.55,10.85,17.55,33.08,0,16.13-10.32,27.24-11.13,12.23-30.07,12.23H915.39q-18.93,0-30.07-12.18Q875,688.1,875,672.05v-4.7h33.13q0,10.57,7.24,10.58h69.73q7.25,0,7.25-10.72t-7.25-10.72H921V623.06h61.11q7.21,0,7.22-10.71t-7.19-10.73H918.42q-7.18,0-7.2,11.14H877.8V608q0-16.14,10-27.29Q899,568.2,918.19,568.19h64.14q19.21,0,30.36,12.24,10,11.12,10,27Q1022.72,627.68,1008,638.8Z" transform="translate(-243.15 -496.42)"/><path class="cls-4" d="M510.33,774a22.29,22.29,0,0,0,9.91,2.45c4.42,0,6.73-2,6.73-4.86s-2.07-4.44-6.89-6.46c-7-2.94-11-7.13-11-12.84,0-7.39,5.83-13.15,15.86-13.15a22.67,22.67,0,0,1,10,2L532.94,749a17.77,17.77,0,0,0-8.13-1.92c-4.14,0-6.12,2.07-6.12,4.35,0,2.76,2.11,4,7.53,6.41,7.23,3.1,10.39,7.27,10.39,13,0,7.58-5.73,13.59-16.81,13.59A25.66,25.66,0,0,1,508.55,782Z" transform="translate(-243.15 -496.42)"/><path class="cls-4" d="M605.07,761.24c0,15.11-7.89,23.25-19.42,23.25-12.15,0-18.72-10.1-18.72-22.53,0-12.85,7.37-22.89,19.39-22.89C599,739.07,605.07,749.66,605.07,761.24Zm-28.08.62c0,9,3.4,14.84,9.1,14.84s8.92-6.42,8.92-15.1c0-7.9-3-14.75-9-14.75C580.31,746.85,577,753,577,761.86Z" transform="translate(-243.15 -496.42)"/><path class="cls-4" d="M637.47,739.73H647V775.8h15.67v8H637.47Z" transform="translate(-243.15 -496.42)"/><path class="cls-4" d="M702.06,739.73v26.35c0,7.27,2.62,10.59,6.85,10.59,4.4,0,7-3.12,7-10.59V739.73h9.56v25.46c0,12.94-6.11,19.3-16.74,19.3s-16.18-6.24-16.18-19.35V739.73Z" transform="translate(-243.15 -496.42)"/><path class="cls-4" d="M767.21,748H756.54v-8.24h31V748h-10.8v35.86h-9.55Z" transform="translate(-243.15 -496.42)"/><path class="cls-4" d="M828.33,739.73v44.1h-9.55v-44.1Z" transform="translate(-243.15 -496.42)"/><path class="cls-4" d="M898.92,761.24c0,15.11-7.89,23.25-19.42,23.25-12.15,0-18.72-10.1-18.72-22.53,0-12.85,7.37-22.89,19.39-22.89C892.84,739.07,898.92,749.66,898.92,761.24Zm-28.08.62c0,9,3.4,14.84,9.1,14.84s8.92-6.42,8.92-15.1c0-7.9-3-14.75-9-14.75C874.16,746.85,870.84,753,870.84,761.86Z" transform="translate(-243.15 -496.42)"/><path class="cls-4" d="M931.32,783.83v-44.1h10.49l8.44,16.51a138.73,138.73,0,0,1,6.46,14.45l.16,0c-.52-5.46-.82-11.92-.82-19V739.73h8.66v44.1H955l-8.62-16.92A150.55,150.55,0,0,1,939.7,752h-.19c.29,5.42.47,11.83.47,19.53v12.26Z" transform="translate(-243.15 -496.42)"/><path class="cls-4" d="M999.16,774a22.3,22.3,0,0,0,9.92,2.45c4.42,0,6.72-2,6.72-4.86s-2.07-4.44-6.89-6.46c-7-2.94-11-7.13-11-12.84,0-7.39,5.83-13.15,15.86-13.15a22.67,22.67,0,0,1,10,2l-2,7.81a17.77,17.77,0,0,0-8.13-1.92c-4.14,0-6.12,2.07-6.12,4.35,0,2.76,2.11,4,7.54,6.41,7.22,3.1,10.39,7.27,10.39,13,0,7.58-5.74,13.59-16.82,13.59A25.66,25.66,0,0,1,997.38,782Z" transform="translate(-243.15 -496.42)"/><path class="cls-5" d="M1138,695c2.73-6.43,5.28-12.5,7.89-18.55a913.45,913.45,0,0,1,93.38-165.76,41.25,41.25,0,0,0,2.81-4c3.56-6.65,9.67-9.1,16.59-9.86,7.43-.82,14.86-.59,22,1.94a24.87,24.87,0,0,1,5.35,2.57c3.57,2.35,3.92,4.95,1.46,8.5-7.12,10.29-14.4,20.47-21.3,30.91-42.87,64.87-77.62,133.76-102,207.69-2.38,7.2-7.85,9.38-14.23,10.29a42.76,42.76,0,0,1-22.2-2.34,16.09,16.09,0,0,1-8.82-8c-10.23-20-20.34-40.07-31-59.83A197.52,197.52,0,0,0,1059.81,649c-4.08-4.45-3.62-8.81,1.68-11.62a34,34,0,0,1,11.48-3.82,81.71,81.71,0,0,1,16-.09c4.63.34,8.47,2.59,11.67,6.22,14.13,16,25.4,33.94,35.72,52.52C1136.78,693,1137.32,693.85,1138,695Z" transform="translate(-243.15 -496.42)"/></svg>